<?xml version="1.0" encoding="UTF-8" standalone="no"?>
<svg
   xmlns:dc="http://purl.org/dc/elements/1.1/"
   xmlns:cc="http://creativecommons.org/ns#"
   xmlns:rdf="http://www.w3.org/1999/02/22-rdf-syntax-ns#"
   xmlns:svg="http://www.w3.org/2000/svg"
   xmlns="http://www.w3.org/2000/svg"
   xmlns:sodipodi="http://sodipodi.sourceforge.net/DTD/sodipodi-0.dtd"
   xmlns:inkscape="http://www.inkscape.org/namespaces/inkscape"
   width="16px"
   height="16px"
   viewBox="0 0 16 16"
   version="1.1"
   id="svg5867"
   sodipodi:docname="link.svg"
   inkscape:version="0.92.2 (5c3e80d, 2017-08-06)">
  <metadata
     id="metadata5871">
    <rdf:RDF>
      <cc:Work
         rdf:about="">
        <dc:format>image/svg+xml</dc:format>
        <dc:type
           rdf:resource="http://purl.org/dc/dcmitype/StillImage" />
        <dc:title>link</dc:title>
      </cc:Work>
    </rdf:RDF>
  </metadata>
  <sodipodi:namedview
     pagecolor="#ffffff"
     bordercolor="#666666"
     borderopacity="1"
     objecttolerance="10"
     gridtolerance="10"
     guidetolerance="10"
     inkscape:pageopacity="0"
     inkscape:pageshadow="2"
     inkscape:window-width="716"
     inkscape:window-height="480"
     id="namedview5869"
     showgrid="false"
     inkscape:zoom="14.75"
     inkscape:cx="8"
     inkscape:cy="8"
     inkscape:window-x="0"
     inkscape:window-y="0"
     inkscape:window-maximized="0"
     inkscape:current-layer="svg5867" />
  <!-- Generator: Sketch 40.3 (33839) - http://www.bohemiancoding.com/sketch -->
  <title
     id="title5858">link</title>
  <desc
     id="desc5860">Created with Sketch.</desc>
  <defs
     id="defs5862" />
  <g
     id="Octicons"
     stroke="none"
     stroke-width="1"
     fill="none"
     fill-rule="evenodd"
     style="fill:#ffffff;fill-opacity:1">
    <g
       id="link"
       fill="#000000"
       style="fill:#ffffff;fill-opacity:1">
      <path
         d="M4,9 L5,9 L5,10 L4,10 C2.5,10 1,8.31 1,6.5 C1,4.69 2.55,3 4,3 L8,3 C9.45,3 11,4.69 11,6.5 C11,7.91 10.09,9.22 9,9.75 L9,8.59 C9.58,8.14 10,7.32 10,6.5 C10,5.22 8.98,4 8,4 L4,4 C3.02,4 2,5.22 2,6.5 C2,7.78 3,9 4,9 L4,9 Z M13,6 L12,6 L12,7 L13,7 C14,7 15,8.22 15,9.5 C15,10.78 13.98,12 13,12 L9,12 C8.02,12 7,10.78 7,9.5 C7,8.67 7.42,7.86 8,7.41 L8,6.25 C6.91,6.78 6,8.09 6,9.5 C6,11.31 7.55,13 9,13 L13,13 C14.45,13 16,11.31 16,9.5 C16,7.69 14.5,6 13,6 L13,6 Z"
         id="Shape"
         style="fill:#ffffff;fill-opacity:0.74" />
    </g>
  </g>
</svg>
