<?xml version="1.0" encoding="UTF-8" standalone="no"?>
<svg
   xmlns:dc="http://purl.org/dc/elements/1.1/"
   xmlns:cc="http://creativecommons.org/ns#"
   xmlns:rdf="http://www.w3.org/1999/02/22-rdf-syntax-ns#"
   xmlns:svg="http://www.w3.org/2000/svg"
   xmlns="http://www.w3.org/2000/svg"
   xmlns:sodipodi="http://sodipodi.sourceforge.net/DTD/sodipodi-0.dtd"
   xmlns:inkscape="http://www.inkscape.org/namespaces/inkscape"
   width="12px"
   height="16px"
   viewBox="0 0 12 16"
   version="1.1"
   id="svg5897"
   sodipodi:docname="sync.svg"
   inkscape:version="0.92.2 (5c3e80d, 2017-08-06)">
  <metadata
     id="metadata5901">
    <rdf:RDF>
      <cc:Work
         rdf:about="">
        <dc:format>image/svg+xml</dc:format>
        <dc:type
           rdf:resource="http://purl.org/dc/dcmitype/StillImage" />
        <dc:title>sync</dc:title>
      </cc:Work>
    </rdf:RDF>
  </metadata>
  <sodipodi:namedview
     pagecolor="#ffffff"
     bordercolor="#666666"
     borderopacity="1"
     objecttolerance="10"
     gridtolerance="10"
     guidetolerance="10"
     inkscape:pageopacity="0"
     inkscape:pageshadow="2"
     inkscape:window-width="716"
     inkscape:window-height="480"
     id="namedview5899"
     showgrid="false"
     inkscape:zoom="14.75"
     inkscape:cx="6"
     inkscape:cy="8"
     inkscape:window-x="0"
     inkscape:window-y="0"
     inkscape:window-maximized="0"
     inkscape:current-layer="svg5897" />
  <!-- Generator: Sketch 40.3 (33839) - http://www.bohemiancoding.com/sketch -->
  <title
     id="title5888">sync</title>
  <desc
     id="desc5890">Created with Sketch.</desc>
  <defs
     id="defs5892" />
  <g
     id="Octicons"
     stroke="none"
     stroke-width="1"
     fill="none"
     fill-rule="evenodd"
     style="fill:#ffffff;fill-opacity:1">
    <g
       id="sync"
       fill="#000000"
       style="fill:#ffffff;fill-opacity:1">
      <path
         d="M10.24,7.4 C10.43,8.68 10.04,10.02 9.04,11 C7.57,12.45 5.3,12.63 3.63,11.54 L4.8,10.4 L0.5,9.8 L1.1,14 L2.41,12.74 C4.77,14.48 8.11,14.31 10.25,12.2 C11.49,10.97 12.06,9.35 11.99,7.74 L10.24,7.4 L10.24,7.4 Z M2.96,5 C4.43,3.55 6.7,3.37 8.37,4.46 L7.2,5.6 L11.5,6.2 L10.9,2 L9.59,3.26 C7.23,1.52 3.89,1.69 1.74,3.8 C0.5,5.03 -0.06,6.65 0.01,8.26 L1.76,8.61 C1.57,7.33 1.96,5.98 2.96,5 L2.96,5 Z"
         id="Shape"
         style="fill:#ffffff;fill-opacity:0.74" />
    </g>
  </g>
</svg>
