<?xml version="1.0" encoding="UTF-8"?>
<svg xmlns="http://www.w3.org/2000/svg" xmlns:xlink="http://www.w3.org/1999/xlink" width="200px" height="200px" viewBox="0 0 200 200" version="1.1">
<g id="surface1">
<path style=" stroke:none;fill-rule:nonzero;fill:rgb(13.333334%,40.000001%,60.000002%);fill-opacity:1;" d="M 177.777344 22.222656 L 22.222656 22.222656 C 9.949219 22.222656 0 35.488281 0 51.851562 L 0 162.964844 C 0 179.328125 9.949219 192.59375 22.222656 192.59375 L 85.644531 192.59375 C 88.535156 197.007812 93.851562 200 100 200 C 106.148438 200 111.472656 197.007812 114.355469 192.59375 L 177.777344 192.59375 C 190.050781 192.59375 200 179.328125 200 162.964844 L 200 51.851562 C 200 35.488281 190.050781 22.222656 177.777344 22.222656 "/>
<path style=" stroke:none;fill-rule:nonzero;fill:rgb(16.078432%,18.431373%,20%);fill-opacity:1;" d="M 111.109375 170.371094 C 111.109375 178.550781 106.136719 185.183594 100 185.183594 C 93.863281 185.183594 88.890625 178.550781 88.890625 170.371094 L 88.890625 37.035156 C 88.890625 28.855469 93.863281 22.222656 100 22.222656 C 106.136719 22.222656 111.109375 28.855469 111.109375 37.035156 Z M 111.109375 170.371094 "/>
<path style=" stroke:none;fill-rule:nonzero;fill:rgb(60.000002%,66.666669%,70.980394%);fill-opacity:1;" d="M 100 162.964844 C 100 171.144531 95.023438 177.777344 88.890625 177.777344 L 22.222656 177.777344 C 16.085938 177.777344 11.109375 171.144531 11.109375 162.964844 L 11.109375 29.628906 C 11.109375 21.449219 16.085938 14.816406 22.222656 14.816406 L 88.890625 14.816406 C 95.023438 14.816406 100 21.449219 100 29.628906 Z M 100 162.964844 "/>
<path style=" stroke:none;fill-rule:nonzero;fill:rgb(88.235295%,90.980393%,92.941177%);fill-opacity:1;" d="M 100 162.964844 C 94.449219 148.164062 79.683594 148.148438 77.777344 148.148438 C 66.667969 148.148438 50 162.964844 33.332031 162.964844 C 27.777344 162.964844 22.222656 156.324219 22.222656 148.148438 L 22.222656 29.628906 C 22.222656 21.453125 27.777344 14.816406 33.332031 14.816406 C 51.417969 14.816406 66.667969 0 77.777344 0 C 94.445312 0 100 14.042969 100 22.222656 Z M 100 162.964844 "/>
<path style=" stroke:none;fill-rule:nonzero;fill:rgb(60.000002%,66.666669%,70.980394%);fill-opacity:1;" d="M 188.890625 162.964844 C 188.890625 171.144531 183.914062 177.777344 177.777344 177.777344 L 111.109375 177.777344 C 104.976562 177.777344 100 171.144531 100 162.964844 L 100 29.628906 C 100 21.449219 104.976562 14.816406 111.109375 14.816406 L 177.777344 14.816406 C 183.914062 14.816406 188.890625 21.449219 188.890625 29.628906 Z M 188.890625 162.964844 "/>
<path style=" stroke:none;fill-rule:nonzero;fill:rgb(80.000001%,83.92157%,86.666667%);fill-opacity:1;" d="M 100 162.964844 C 105.550781 148.164062 120.316406 148.148438 122.222656 148.148438 C 133.332031 148.148438 150 162.964844 166.667969 162.964844 C 172.222656 162.964844 177.777344 156.324219 177.777344 148.148438 L 177.777344 29.628906 C 177.777344 21.453125 172.222656 14.816406 166.667969 14.816406 C 148.578125 14.816406 133.332031 0 122.222656 0 C 105.554688 0 100 14.042969 100 22.222656 Z M 100 162.964844 "/>
</g>
</svg>
